# xmcd
#
# Track frame offsets:
#	150
#	22862
#	44213
#	65559
#	80539
#	112485
#	145038
#	167001
#	185104
#	206765
#
# Disc length: 3038 seconds
#
# Revision: 0
# Processed by: cddbd v1.5.2PL0 Copyright (c) Steve Scherf et al.
# Submitted via: EasyCDDAExtractor 12.0.1.1
#
DISCID=980bdc0a
DTITLE=Blue Lightning Band - Blues For Theresa
DYEAR=1900
DGENRE=Blues
TTITLE0=Blues For Theresa
TTITLE1=Packin' Up
TTITLE2=It Hurts Me Too
TTITLE3=Best Poker Hand
TTITLE4=Wild Wild Woman
TTITLE5=Sadie
TTITLE6=Blues So Bad
TTITLE7=Mystery Train
TTITLE8=Bleeding Heart
TTITLE9=Had My Fun
EXTD=
EXTT0=
EXTT1=
EXTT2=
EXTT3=
EXTT4=
EXTT5=
EXTT6=
EXTT7=
EXTT8=
EXTT9=
PLAYORDER=
